<?xml version="1.0" encoding="utf-8"?>
<!-- Generator: Adobe Illustrator 15.0.0, SVG Export Plug-In . SVG Version: 6.00 Build 0)  -->
<!DOCTYPE svg PUBLIC "-//W3C//DTD SVG 1.1//EN" "http://www.w3.org/Graphics/SVG/1.1/DTD/svg11.dtd">
<svg version="1.1" id="Layer_1" xmlns="http://www.w3.org/2000/svg" xmlns:xlink="http://www.w3.org/1999/xlink" x="0px" y="0px"
	 width="189px" height="72px" viewBox="0 0 189 72" enable-background="new 0 0 189 72" xml:space="preserve">
<text transform="matrix(1 0 0 1 9.335 38)" fill="#FFFFFF" font-family="'Bariol'" font-size="36.6838">SPECTFLIX</text>
<g enable-background="new    ">
	<path fill="none" stroke="#FFFFFF" stroke-miterlimit="10" d="M19.643,15.073c-3.852,0-5.319,1.908-5.319,3.999
		c0,6.089,13.866,3.484,13.866,12.325c0,4.585-3.154,7.116-8.804,7.116c-4.182,0-7.3-2.128-8.547-4.512
		c-0.146-0.294-0.184-0.44-0.184-0.66c0-0.661,0.514-1.174,1.174-1.174c0.44,0,0.807,0.22,1.027,0.587
		c1.174,1.907,3.301,3.484,6.529,3.484c4.035,0,6.31-1.614,6.31-4.842c0-6.859-13.866-3.632-13.866-12.325
		c0-3.375,2.458-6.272,7.813-6.272c3.485,0,6.31,1.467,7.85,3.778c0.146,0.22,0.22,0.439,0.22,0.696c0,0.66-0.514,1.174-1.174,1.174
		c-0.33,0-0.661-0.11-0.954-0.477C24.485,16.614,22.724,15.073,19.643,15.073z"/>
	<path fill="none" stroke="#FFFFFF" stroke-miterlimit="10" d="M35.233,37.046c0,0.697-0.55,1.247-1.247,1.247
		c-0.697,0-1.247-0.55-1.247-1.247V14.561c0-0.697,0.55-1.248,1.247-1.248h7.3c3.925,0,7.006,2.274,7.006,7.153
		c0,4.806-3.008,7.189-7.006,7.189h-6.053V37.046z M35.233,25.381h5.686c2.971,0,4.842-1.724,4.842-4.915
		c0-3.228-1.907-4.879-4.842-4.879h-5.686V25.381z"/>
	<path fill="none" stroke="#FFFFFF" stroke-miterlimit="10" d="M53.942,38c-0.697,0-1.247-0.55-1.247-1.247V14.561
		c0-0.697,0.55-1.248,1.247-1.248h11.775c0.624,0,1.137,0.514,1.137,1.138c0,0.623-0.513,1.137-1.137,1.137H55.189v8.841h8.07
		c0.624,0,1.137,0.514,1.137,1.137c0,0.624-0.514,1.138-1.137,1.138h-8.07v9.023h10.931c0.624,0,1.137,0.514,1.137,1.138
		c0,0.623-0.514,1.137-1.137,1.137H53.942z"/>
	<path fill="none" stroke="#FFFFFF" stroke-miterlimit="10" d="M70.376,25.675c0-8.693,4.329-12.875,11.445-12.875
		c3.484,0,6.529,1.504,8.253,3.888c0.183,0.257,0.256,0.514,0.256,0.771c0,0.66-0.513,1.174-1.174,1.174
		c-0.33,0-0.66-0.11-0.954-0.477c-1.247-1.725-3.631-3.082-6.382-3.082c-5.649,0-8.877,3.412-8.877,10.602
		c0,7.63,3.228,10.564,8.877,10.564c2.421,0,4.952-0.954,6.382-3.008c0.257-0.367,0.661-0.477,0.954-0.477
		c0.661,0,1.174,0.513,1.174,1.174c0,0.293-0.073,0.477-0.22,0.696c-1.614,2.348-4.916,3.889-8.29,3.889
		C74.705,38.514,70.376,34.698,70.376,25.675z"/>
	<path fill="none" stroke="#FFFFFF" stroke-miterlimit="10" d="M93.963,15.66c-0.66,0-1.174-0.513-1.174-1.174
		c0-0.66,0.514-1.174,1.174-1.174h15.59c0.66,0,1.174,0.514,1.174,1.174c0,0.661-0.514,1.174-1.174,1.174h-6.53v21.386
		c0,0.697-0.55,1.247-1.247,1.247c-0.696,0-1.247-0.55-1.247-1.247V15.66H93.963z"/>
	<path fill="none" stroke="#FFFFFF" stroke-miterlimit="10" d="M117.073,37.046c0,0.697-0.55,1.247-1.247,1.247
		s-1.247-0.55-1.247-1.247V14.561c0-0.697,0.55-1.248,1.247-1.248h11.775c0.623,0,1.137,0.514,1.137,1.138
		c0,0.623-0.514,1.137-1.137,1.137h-10.528v9.134h8.07c0.624,0,1.137,0.514,1.137,1.138c0,0.623-0.513,1.137-1.137,1.137h-8.07
		V37.046z"/>
	<path fill="none" stroke="#FFFFFF" stroke-miterlimit="10" d="M146.126,35.652c0.66,0,1.174,0.514,1.174,1.174
		S146.786,38,146.126,38h-11.298c-0.697,0-1.247-0.55-1.247-1.247V14.267c0-0.697,0.55-1.247,1.247-1.247s1.247,0.55,1.247,1.247
		v21.386H146.126z"/>
	<path fill="none" stroke="#FFFFFF" stroke-miterlimit="10" d="M153.793,37.046c0,0.661-0.55,1.247-1.247,1.247
		s-1.247-0.586-1.247-1.247V14.267c0-0.66,0.55-1.247,1.247-1.247s1.247,0.587,1.247,1.247V37.046z"/>
	<path fill="none" stroke="#FFFFFF" stroke-miterlimit="10" d="M165.899,27.582l-6.677,10.234c-0.184,0.294-0.587,0.477-0.99,0.477
		c-0.697,0-1.247-0.55-1.247-1.247c0-0.257,0.073-0.477,0.184-0.66l7.336-11.041l-6.896-10.418c-0.109-0.146-0.183-0.44-0.183-0.66
		c0-0.697,0.55-1.247,1.247-1.247c0.514,0,0.844,0.257,1.101,0.623l6.126,9.391l6.126-9.391c0.257-0.366,0.587-0.623,1.1-0.623
		c0.697,0,1.248,0.55,1.248,1.247c0,0.22-0.074,0.514-0.184,0.66l-6.896,10.418l7.337,11.041c0.109,0.184,0.183,0.403,0.183,0.66
		c0,0.697-0.55,1.247-1.247,1.247c-0.403,0-0.807-0.183-0.99-0.477L165.899,27.582z"/>
</g>
<g enable-background="new    ">
	<path fill="#FFFFFF" d="M11.381,56.006c0,0.263-0.207,0.47-0.47,0.47s-0.47-0.207-0.47-0.47v-8.475c0-0.263,0.208-0.47,0.47-0.47
		h2.751c1.479,0,2.641,0.857,2.641,2.695c0,1.812-1.134,2.71-2.641,2.71h-2.281V56.006z M11.381,51.609h2.143
		c1.12,0,1.825-0.649,1.825-1.853c0-1.216-0.719-1.838-1.825-1.838h-2.143V51.609z"/>
	<path fill="#FFFFFF" d="M18.642,46.965v7.894c0,0.553,0.18,0.788,0.553,0.788c0.221,0,0.415,0.18,0.415,0.415
		c0,0.234-0.193,0.414-0.415,0.414c-0.926,0-1.438-0.553-1.438-1.617v-7.894c0-0.235,0.208-0.442,0.442-0.442
		C18.449,46.522,18.642,46.729,18.642,46.965z"/>
	<path fill="#FFFFFF" d="M21.492,51.43c-0.138,0.152-0.235,0.193-0.359,0.193c-0.221,0-0.401-0.18-0.401-0.4
		c0-0.097,0.028-0.166,0.069-0.235c0.387-0.608,1.133-1.092,2.295-1.092c1.604,0,2.488,0.94,2.488,2.35v3.802
		c0,0.235-0.194,0.429-0.429,0.429s-0.429-0.193-0.429-0.429V55.55c-0.345,0.649-1.147,0.995-1.977,0.995
		c-1.465,0-2.392-0.705-2.392-1.977c0-1.217,0.926-1.949,2.419-1.949h1.949v-0.374c0-0.939-0.622-1.521-1.631-1.521
		C22.363,50.725,21.92,50.946,21.492,51.43z M24.727,53.974v-0.581h-1.949c-0.898,0-1.521,0.374-1.521,1.176
		c0,0.719,0.498,1.175,1.576,1.175C23.8,55.743,24.727,55.148,24.727,53.974z"/>
	<path fill="#FFFFFF" d="M28.918,56.103l-2.309-5.488c-0.014-0.041-0.042-0.097-0.042-0.193c0-0.249,0.193-0.442,0.442-0.442
		s0.359,0.152,0.415,0.29l1.949,4.77l1.95-4.77c0.055-0.138,0.166-0.29,0.415-0.29c0.249,0,0.442,0.193,0.442,0.442
		c0,0.097-0.028,0.152-0.042,0.193l-2.724,6.483c-0.566,1.355-1.271,2.046-2.585,2.046c-0.235,0-0.415-0.18-0.415-0.414
		c0-0.235,0.18-0.415,0.415-0.415C28.034,58.314,28.352,57.499,28.918,56.103z"/>
	<path fill="#FFFFFF" d="M44.327,56.006c0,0.249-0.207,0.47-0.47,0.47s-0.47-0.221-0.47-0.47v-8.585c0-0.249,0.208-0.47,0.47-0.47
		s0.47,0.221,0.47,0.47V56.006z"/>
	<path fill="#FFFFFF" d="M57.092,46.965v7.894c0,0.553,0.18,0.788,0.553,0.788c0.221,0,0.415,0.18,0.415,0.415
		c0,0.234-0.193,0.414-0.415,0.414c-0.926,0-1.438-0.553-1.438-1.617v-7.894c0-0.235,0.208-0.442,0.442-0.442
		C56.899,46.522,57.092,46.729,57.092,46.965z"/>
	<path fill="#FFFFFF" d="M59.14,48.153c0-0.4,0.194-0.553,0.525-0.553s0.525,0.152,0.525,0.553c0,0.332-0.194,0.525-0.525,0.525
		S59.14,48.485,59.14,48.153z M60.108,56.033c0,0.249-0.193,0.442-0.442,0.442s-0.442-0.193-0.442-0.442v-5.612
		c0-0.249,0.193-0.442,0.442-0.442s0.442,0.193,0.442,0.442V56.033z"/>
	<path fill="#FFFFFF" d="M63.621,56.199l-2.35-5.585c-0.014-0.041-0.042-0.097-0.042-0.193c0-0.249,0.193-0.442,0.442-0.442
		s0.359,0.152,0.415,0.29l1.949,4.77l1.949-4.77c0.056-0.138,0.166-0.29,0.415-0.29s0.442,0.193,0.442,0.442
		c0,0.097-0.028,0.152-0.042,0.193l-2.35,5.585c-0.083,0.18-0.235,0.276-0.415,0.276S63.704,56.379,63.621,56.199z"/>
	<path fill="#FFFFFF" d="M70.397,49.896c2.212,0,2.641,1.756,2.641,2.695c0,0.401,0,0.885-0.553,0.885h-4.037
		c0,1.369,0.788,2.254,2.087,2.254c0.802,0,1.272-0.305,1.659-0.595c0.083-0.056,0.138-0.083,0.249-0.083
		c0.221,0,0.401,0.18,0.401,0.401c0,0.151-0.069,0.234-0.152,0.317c-0.208,0.208-0.926,0.774-2.157,0.774
		c-1.838,0-2.986-1.009-2.986-3.332C67.549,51.084,68.6,49.896,70.397,49.896z M70.397,50.697c-1.203,0-1.866,0.774-1.949,2.005
		h3.719C72.167,51.706,71.821,50.697,70.397,50.697z"/>
	<path fill="#FFFFFF" d="M85.432,56.006c0,0.249-0.207,0.47-0.47,0.47s-0.47-0.221-0.47-0.47v-8.585c0-0.249,0.208-0.47,0.47-0.47
		s0.47,0.221,0.47,0.47V56.006z"/>
	<path fill="#FFFFFF" d="M98.198,46.965v7.894c0,0.553,0.18,0.788,0.553,0.788c0.222,0,0.415,0.18,0.415,0.415
		c0,0.234-0.193,0.414-0.415,0.414c-0.926,0-1.438-0.553-1.438-1.617v-7.894c0-0.235,0.207-0.442,0.442-0.442
		C98.005,46.522,98.198,46.729,98.198,46.965z"/>
	<path fill="#FFFFFF" d="M101.048,51.43c-0.138,0.152-0.235,0.193-0.359,0.193c-0.221,0-0.4-0.18-0.4-0.4
		c0-0.097,0.027-0.166,0.068-0.235c0.388-0.608,1.134-1.092,2.295-1.092c1.604,0,2.488,0.94,2.488,2.35v3.802
		c0,0.235-0.193,0.429-0.428,0.429c-0.235,0-0.429-0.193-0.429-0.429V55.55c-0.346,0.649-1.147,0.995-1.978,0.995
		c-1.465,0-2.392-0.705-2.392-1.977c0-1.217,0.927-1.949,2.42-1.949h1.949v-0.374c0-0.939-0.622-1.521-1.632-1.521
		C101.919,50.725,101.477,50.946,101.048,51.43z M104.283,53.974v-0.581h-1.949c-0.899,0-1.521,0.374-1.521,1.176
		c0,0.719,0.498,1.175,1.576,1.175C103.356,55.743,104.283,55.148,104.283,53.974z"/>
	<path fill="#FFFFFF" d="M107.549,50.421v3.608c0,0.898,0.29,1.672,1.687,1.672c1.396,0,1.687-0.773,1.687-1.672v-3.608
		c0-0.249,0.207-0.442,0.456-0.442c0.235,0,0.429,0.193,0.429,0.442v3.608c0,1.313-0.429,2.516-2.571,2.516
		c-2.129,0-2.571-1.203-2.571-2.516v-3.608c0-0.249,0.193-0.442,0.442-0.442C107.341,49.979,107.549,50.172,107.549,50.421z"/>
	<path fill="#FFFFFF" d="M117.214,50.241c0.235-0.429,0.54-0.747,1.23-0.747c0.222,0,0.401,0.18,0.401,0.401
		c0,0.221-0.18,0.4-0.401,0.4c-0.414,0-0.566,0.208-0.663,0.429c0.317,0.388,0.498,0.898,0.498,1.493c0,1.41-0.94,2.322-2.544,2.322
		c-0.595,0-1.106-0.124-1.493-0.346c-0.152,0.125-0.249,0.277-0.249,0.498c0,0.29,0.193,0.581,1.023,0.581h1.424
		c1.341,0,2.419,0.58,2.419,1.88c0,1.438-1.3,1.99-2.972,1.99c-1.425,0-2.945-0.414-2.945-1.935c0-0.637,0.401-1.134,1.051-1.396
		c-0.512-0.166-0.857-0.581-0.857-1.12c0-0.415,0.222-0.746,0.554-0.968c-0.332-0.415-0.498-0.912-0.498-1.507
		c0-1.41,0.94-2.322,2.544-2.322C116.302,49.896,116.827,50.02,117.214,50.241z M116.44,56.103h-1.438
		c-0.803,0.139-1.162,0.553-1.162,1.106c0,0.843,0.968,1.161,2.061,1.161c1.092,0,2.06-0.318,2.06-1.217
		C117.961,56.393,117.339,56.103,116.44,56.103z M117.38,52.218c0-0.912-0.58-1.521-1.645-1.521s-1.646,0.608-1.646,1.521
		s0.581,1.521,1.646,1.521S117.38,53.13,117.38,52.218z"/>
	<path fill="#FFFFFF" d="M125.347,52.343v3.69c0,0.249-0.193,0.442-0.442,0.442s-0.442-0.193-0.442-0.442v-3.511
		c0-1.093-0.318-1.839-1.659-1.839c-1.369,0-1.839,0.829-1.839,1.936v3.414c0,0.249-0.193,0.442-0.442,0.442
		s-0.442-0.193-0.442-0.442v-9.068c0-0.249,0.193-0.442,0.442-0.442s0.442,0.193,0.442,0.442v3.898
		c0.263-0.525,0.94-0.968,1.839-0.968C124.932,49.896,125.347,51.167,125.347,52.343z"/>
</g>
</svg>
